<svg width="152" height="28" viewBox="0 0 152 28" fill="none" xmlns="http://www.w3.org/2000/svg">
<rect width="152" height="28" rx="5" fill="#315784"/>
<path d="M24.3571 6H19.2143C18.9112 6 18.6205 6.12041 18.4062 6.33474C18.1918 6.54906 18.0714 6.83975 18.0714 7.14286V12.2857C18.0714 12.5888 18.1918 12.8795 18.4062 13.0938C18.6205 13.3082 18.9112 13.4286 19.2143 13.4286H24.3571C24.6602 13.4286 24.9509 13.3082 25.1653 13.0938C25.3796 12.8795 25.5 12.5888 25.5 12.2857V7.14286C25.5 6.83975 25.3796 6.54906 25.1653 6.33474C24.9509 6.12041 24.6602 6 24.3571 6ZM23.2143 10.8571C23.2143 10.9329 23.1842 11.0056 23.1306 11.0592C23.077 11.1128 23.0043 11.1429 22.9286 11.1429H20.6429C20.5671 11.1429 20.4944 11.1128 20.4408 11.0592C20.3872 11.0056 20.3571 10.9329 20.3571 10.8571V8.57143C20.3571 8.49565 20.3872 8.42298 20.4408 8.3694C20.4944 8.31582 20.5671 8.28571 20.6429 8.28571H22.9286C23.0043 8.28571 23.077 8.31582 23.1306 8.3694C23.1842 8.42298 23.2143 8.49565 23.2143 8.57143V10.8571ZM15.7857 6H10.6429C10.3398 6 10.0491 6.12041 9.83474 6.33474C9.62041 6.54906 9.5 6.83975 9.5 7.14286V12.2857C9.5 12.5888 9.62041 12.8795 9.83474 13.0938C10.0491 13.3082 10.3398 13.4286 10.6429 13.4286H15.7857C16.0888 13.4286 16.3795 13.3082 16.5938 13.0938C16.8082 12.8795 16.9286 12.5888 16.9286 12.2857V7.14286C16.9286 6.83975 16.8082 6.54906 16.5938 6.33474C16.3795 6.12041 16.0888 6 15.7857 6ZM14.6429 10.8571C14.6429 10.9329 14.6128 11.0056 14.5592 11.0592C14.5056 11.1128 14.4329 11.1429 14.3571 11.1429H12.0714C11.9957 11.1429 11.923 11.1128 11.8694 11.0592C11.8158 11.0056 11.7857 10.9329 11.7857 10.8571V8.57143C11.7857 8.49565 11.8158 8.42298 11.8694 8.3694C11.923 8.31582 11.9957 8.28571 12.0714 8.28571H14.3571C14.4329 8.28571 14.5056 8.31582 14.5592 8.3694C14.6128 8.42298 14.6429 8.49565 14.6429 8.57143V10.8571ZM15.7857 14.5714H10.6429C10.3398 14.5714 10.0491 14.6918 9.83474 14.9062C9.62041 15.1205 9.5 15.4112 9.5 15.7143V20.8571C9.5 21.1602 9.62041 21.4509 9.83474 21.6653C10.0491 21.8796 10.3398 22 10.6429 22H15.7857C16.0888 22 16.3795 21.8796 16.5938 21.6653C16.8082 21.4509 16.9286 21.1602 16.9286 20.8571V15.7143C16.9286 15.4112 16.8082 15.1205 16.5938 14.9062C16.3795 14.6918 16.0888 14.5714 15.7857 14.5714ZM14.6429 19.4286C14.6429 19.5043 14.6128 19.577 14.5592 19.6306C14.5056 19.6842 14.4329 19.7143 14.3571 19.7143H12.0714C11.9957 19.7143 11.923 19.6842 11.8694 19.6306C11.8158 19.577 11.7857 19.5043 11.7857 19.4286V17.1429C11.7857 17.0671 11.8158 16.9944 11.8694 16.9408C11.923 16.8872 11.9957 16.8571 12.0714 16.8571H14.3571C14.4329 16.8571 14.5056 16.8872 14.5592 16.9408C14.6128 16.9944 14.6429 17.0671 14.6429 17.1429V19.4286Z" fill="#F4F6F8"/>
<path d="M22.7615 16.7695H20.5461C20.3931 16.7695 20.2692 16.8935 20.2692 17.0465V19.2618C20.2692 19.4148 20.3931 19.5388 20.5461 19.5388H22.7615C22.9144 19.5388 23.0384 19.4148 23.0384 19.2618V17.0465C23.0384 16.8935 22.9144 16.7695 22.7615 16.7695Z" fill="#F4F6F8"/>
<path d="M20.0384 14.9219H18.6538C18.5264 14.9219 18.423 15.0252 18.423 15.1526V16.5373C18.423 16.6647 18.5264 16.768 18.6538 16.768H20.0384C20.1659 16.768 20.2692 16.6647 20.2692 16.5373V15.1526C20.2692 15.0252 20.1659 14.9219 20.0384 14.9219Z" fill="#F4F6F8"/>
<path d="M24.6538 19.5391H23.2692C23.1418 19.5391 23.0385 19.6424 23.0385 19.7698V21.1544C23.0385 21.2819 23.1418 21.3852 23.2692 21.3852H24.6538C24.7813 21.3852 24.8846 21.2819 24.8846 21.1544V19.7698C24.8846 19.6424 24.7813 19.5391 24.6538 19.5391Z" fill="#F4F6F8"/>
<path d="M24.5769 14.9219H23.3461C23.1762 14.9219 23.0385 15.0596 23.0385 15.2296V16.4603C23.0385 16.6303 23.1762 16.768 23.3461 16.768H24.5769C24.7468 16.768 24.8846 16.6303 24.8846 16.4603V15.2296C24.8846 15.0596 24.7468 14.9219 24.5769 14.9219Z" fill="#F4F6F8"/>
<path d="M19.9615 19.5391H18.7307C18.5608 19.5391 18.423 19.6768 18.423 19.8468V21.0775C18.423 21.2475 18.5608 21.3852 18.7307 21.3852H19.9615C20.1314 21.3852 20.2692 21.2475 20.2692 21.0775V19.8468C20.2692 19.6768 20.1314 19.5391 19.9615 19.5391Z" fill="#F4F6F8"/>
<path d="M31.0795 10.7102V9.77273H37.625V10.7102H34.8807V18.5H33.8239V10.7102H31.0795ZM40.1552 18.6534C39.7404 18.6534 39.364 18.5753 39.0259 18.419C38.6879 18.2599 38.4194 18.0312 38.2205 17.733C38.0217 17.4318 37.9222 17.0682 37.9222 16.642C37.9222 16.267 37.9961 15.9631 38.1438 15.7301C38.2915 15.4943 38.489 15.3097 38.7362 15.1761C38.9833 15.0426 39.256 14.9432 39.5543 14.8778C39.8555 14.8097 40.158 14.7557 40.462 14.7159C40.8597 14.6648 41.1822 14.6264 41.4293 14.6009C41.6793 14.5724 41.8612 14.5256 41.9748 14.4602C42.0913 14.3949 42.1495 14.2812 42.1495 14.1193V14.0852C42.1495 13.6648 42.0344 13.3381 41.8043 13.1051C41.5771 12.8722 41.2319 12.7557 40.7688 12.7557C40.2887 12.7557 39.9123 12.8608 39.6396 13.071C39.3668 13.2812 39.1751 13.5057 39.0643 13.7443L38.1097 13.4034C38.2802 13.0057 38.5075 12.696 38.7915 12.4744C39.0785 12.25 39.391 12.0937 39.729 12.0057C40.07 11.9148 40.4052 11.8693 40.7347 11.8693C40.945 11.8693 41.1864 11.8949 41.4592 11.946C41.7347 11.9943 42.0004 12.0952 42.256 12.2486C42.5146 12.402 42.729 12.6335 42.8995 12.9432C43.07 13.2528 43.1552 13.6676 43.1552 14.1875V18.5H42.1495V17.6136H42.0984C42.0302 17.7557 41.9165 17.9077 41.7575 18.0696C41.5984 18.2315 41.3867 18.3693 41.1225 18.483C40.8583 18.5966 40.5359 18.6534 40.1552 18.6534ZM40.3086 17.75C40.7063 17.75 41.0415 17.6719 41.3143 17.5156C41.5898 17.3594 41.7972 17.1577 41.9364 16.9105C42.0785 16.6634 42.1495 16.4034 42.1495 16.1307V15.2102C42.1069 15.2614 42.0131 15.3082 41.8683 15.3509C41.7262 15.3906 41.5614 15.4261 41.3739 15.4574C41.1893 15.4858 41.0089 15.5114 40.8327 15.5341C40.6594 15.554 40.5188 15.571 40.4109 15.5852C40.1495 15.6193 39.9052 15.6747 39.6779 15.7514C39.4535 15.8253 39.2717 15.9375 39.1325 16.0881C38.9961 16.2358 38.9279 16.4375 38.9279 16.6932C38.9279 17.0426 39.0572 17.3068 39.3157 17.4858C39.5771 17.6619 39.908 17.75 40.3086 17.75ZM44.9908 18.5V11.9545H45.9624V12.9773H46.0476C46.1839 12.6278 46.4041 12.3565 46.7081 12.1634C47.0121 11.9673 47.3771 11.8693 47.8033 11.8693C48.2351 11.8693 48.5945 11.9673 48.8814 12.1634C49.1712 12.3565 49.397 12.6278 49.5589 12.9773H49.6271C49.7947 12.6392 50.0462 12.3707 50.3814 12.1719C50.7166 11.9702 51.1186 11.8693 51.5874 11.8693C52.1726 11.8693 52.6513 12.0526 53.0234 12.419C53.3956 12.7827 53.5817 13.3494 53.5817 14.1193V18.5H52.576V14.1193C52.576 13.6364 52.4439 13.2912 52.1797 13.0838C51.9155 12.8764 51.6044 12.7727 51.2464 12.7727C50.7862 12.7727 50.4297 12.9119 50.1768 13.1903C49.924 13.4659 49.7976 13.8153 49.7976 14.2386V18.5H48.7749V14.017C48.7749 13.6449 48.6541 13.3452 48.4126 13.1179C48.1712 12.8878 47.8601 12.7727 47.4794 12.7727C47.218 12.7727 46.9737 12.8423 46.7464 12.9815C46.522 13.1207 46.3402 13.3139 46.201 13.5611C46.0646 13.8054 45.9964 14.0881 45.9964 14.4091V18.5H44.9908ZM55.4205 20.9545V11.9545H56.392V12.9943H56.5114C56.5852 12.8807 56.6875 12.7358 56.8182 12.5597C56.9517 12.3807 57.142 12.2216 57.3892 12.0824C57.6392 11.9403 57.9773 11.8693 58.4034 11.8693C58.9545 11.8693 59.4403 12.0071 59.8608 12.2827C60.2813 12.5582 60.6094 12.9489 60.8452 13.4545C61.081 13.9602 61.1989 14.5568 61.1989 15.2443C61.1989 15.9375 61.081 16.5384 60.8452 17.0469C60.6094 17.5526 60.2827 17.9446 59.8651 18.223C59.4474 18.4986 58.9659 18.6364 58.4205 18.6364C58 18.6364 57.6634 18.5668 57.4105 18.4276C57.1577 18.2855 56.9631 18.125 56.8267 17.946C56.6903 17.7642 56.5852 17.6136 56.5114 17.4943H56.4261V20.9545H55.4205ZM56.4091 15.2273C56.4091 15.7216 56.4815 16.1577 56.6264 16.5355C56.7713 16.9105 56.983 17.2045 57.2614 17.4176C57.5398 17.6278 57.8807 17.733 58.2841 17.733C58.7045 17.733 59.0554 17.6222 59.3366 17.4006C59.6207 17.1761 59.8338 16.875 59.9759 16.4972C60.1207 16.1165 60.1932 15.6932 60.1932 15.2273C60.1932 14.767 60.1222 14.3523 59.9801 13.983C59.8409 13.6108 59.6293 13.3168 59.3452 13.1009C59.0639 12.8821 58.7102 12.7727 58.2841 12.7727C57.875 12.7727 57.5313 12.8764 57.2528 13.0838C56.9744 13.2884 56.7642 13.5753 56.6222 13.9446C56.4801 14.3111 56.4091 14.7386 56.4091 15.2273ZM62.733 18.5V11.9545H63.7386V18.5H62.733ZM63.2443 10.8636C63.0483 10.8636 62.8793 10.7969 62.7372 10.6634C62.598 10.5298 62.5284 10.3693 62.5284 10.1818C62.5284 9.99432 62.598 9.83381 62.7372 9.70028C62.8793 9.56676 63.0483 9.5 63.2443 9.5C63.4403 9.5 63.608 9.56676 63.7472 9.70028C63.8892 9.83381 63.9602 9.99432 63.9602 10.1818C63.9602 10.3693 63.8892 10.5298 63.7472 10.6634C63.608 10.7969 63.4403 10.8636 63.2443 10.8636ZM66.5863 9.77273V18.5H65.5806V9.77273H66.5863ZM69.3658 16.1136L69.3487 14.8693H69.5533L72.4169 11.9545H73.6612L70.6101 15.0398H70.5249L69.3658 16.1136ZM68.4283 18.5V9.77273H69.4339V18.5H68.4283ZM72.5874 18.5L70.0305 15.2614L70.7464 14.5625L73.8658 18.5H72.5874ZM76.8817 18.6534C76.467 18.6534 76.0906 18.5753 75.7525 18.419C75.4144 18.2599 75.146 18.0312 74.9471 17.733C74.7482 17.4318 74.6488 17.0682 74.6488 16.642C74.6488 16.267 74.7227 15.9631 74.8704 15.7301C75.0181 15.4943 75.2156 15.3097 75.4627 15.1761C75.7099 15.0426 75.9826 14.9432 76.2809 14.8778C76.582 14.8097 76.8846 14.7557 77.1886 14.7159C77.5863 14.6648 77.9087 14.6264 78.1559 14.6009C78.4059 14.5724 78.5877 14.5256 78.7013 14.4602C78.8178 14.3949 78.8761 14.2812 78.8761 14.1193V14.0852C78.8761 13.6648 78.761 13.3381 78.5309 13.1051C78.3036 12.8722 77.9585 12.7557 77.4954 12.7557C77.0153 12.7557 76.6388 12.8608 76.3661 13.071C76.0934 13.2812 75.9016 13.5057 75.7908 13.7443L74.8363 13.4034C75.0067 13.0057 75.234 12.696 75.5181 12.4744C75.805 12.25 76.1175 12.0937 76.4556 12.0057C76.7965 11.9148 77.1317 11.8693 77.4613 11.8693C77.6715 11.8693 77.913 11.8949 78.1857 11.946C78.4613 11.9943 78.7269 12.0952 78.9826 12.2486C79.2411 12.402 79.4556 12.6335 79.6261 12.9432C79.7965 13.2528 79.8817 13.6676 79.8817 14.1875V18.5H78.8761V17.6136H78.8249C78.7567 17.7557 78.6431 17.9077 78.484 18.0696C78.3249 18.2315 78.1133 18.3693 77.8491 18.483C77.5849 18.5966 77.2624 18.6534 76.8817 18.6534ZM77.0352 17.75C77.4329 17.75 77.7681 17.6719 78.0408 17.5156C78.3164 17.3594 78.5238 17.1577 78.663 16.9105C78.805 16.6634 78.8761 16.4034 78.8761 16.1307V15.2102C78.8335 15.2614 78.7397 15.3082 78.5948 15.3509C78.4528 15.3906 78.288 15.4261 78.1005 15.4574C77.9158 15.4858 77.7354 15.5114 77.5593 15.5341C77.386 15.554 77.2454 15.571 77.1374 15.5852C76.8761 15.6193 76.6317 15.6747 76.4045 15.7514C76.18 15.8253 75.9982 15.9375 75.859 16.0881C75.7227 16.2358 75.6545 16.4375 75.6545 16.6932C75.6545 17.0426 75.7837 17.3068 76.0423 17.4858C76.3036 17.6619 76.6346 17.75 77.0352 17.75ZM82.723 14.5625V18.5H81.7173V11.9545H82.6889V12.9773H82.7741C82.9276 12.6449 83.1605 12.3778 83.473 12.1761C83.7855 11.9716 84.1889 11.8693 84.6832 11.8693C85.1264 11.8693 85.5142 11.9602 85.8466 12.142C86.179 12.321 86.4375 12.5938 86.6222 12.9602C86.8068 13.3239 86.8991 13.7841 86.8991 14.3409V18.5H85.8935V14.4091C85.8935 13.8949 85.7599 13.4943 85.4929 13.2074C85.2259 12.9176 84.8594 12.7727 84.3935 12.7727C84.0724 12.7727 83.7855 12.8423 83.5327 12.9815C83.2827 13.1207 83.0852 13.3239 82.9403 13.5909C82.7955 13.858 82.723 14.1818 82.723 14.5625ZM95.4187 15.7727H96.5778L97.5494 17.0511L97.805 17.392L99.2539 19.3182H98.0948L97.1403 18.0398L96.9016 17.7159L95.4187 15.7727ZM99.6119 14.1364C99.6119 15.0568 99.4457 15.8523 99.1133 16.5227C98.7809 17.1932 98.3249 17.7102 97.7454 18.0739C97.1658 18.4375 96.5039 18.6193 95.7596 18.6193C95.0153 18.6193 94.3533 18.4375 93.7738 18.0739C93.1942 17.7102 92.7383 17.1932 92.4059 16.5227C92.0735 15.8523 91.9073 15.0568 91.9073 14.1364C91.9073 13.2159 92.0735 12.4205 92.4059 11.75C92.7383 11.0795 93.1942 10.5625 93.7738 10.1989C94.3533 9.83523 95.0153 9.65341 95.7596 9.65341C96.5039 9.65341 97.1658 9.83523 97.7454 10.1989C98.3249 10.5625 98.7809 11.0795 99.1133 11.75C99.4457 12.4205 99.6119 13.2159 99.6119 14.1364ZM98.5891 14.1364C98.5891 13.3807 98.4627 12.7429 98.2099 12.223C97.9599 11.7031 97.6204 11.3097 97.1914 11.0426C96.7653 10.7756 96.288 10.642 95.7596 10.642C95.2312 10.642 94.7525 10.7756 94.3235 11.0426C93.8974 11.3097 93.5579 11.7031 93.305 12.223C93.055 12.7429 92.93 13.3807 92.93 14.1364C92.93 14.892 93.055 15.5298 93.305 16.0497C93.5579 16.5696 93.8974 16.9631 94.3235 17.2301C94.7525 17.4972 95.2312 17.6307 95.7596 17.6307C96.288 17.6307 96.7653 17.4972 97.1914 17.2301C97.6204 16.9631 97.9599 16.5696 98.2099 16.0497C98.4627 15.5298 98.5891 14.892 98.5891 14.1364ZM101.389 18.5V9.77273H104.338C105.02 9.77273 105.579 9.8892 106.017 10.1222C106.454 10.3523 106.778 10.669 106.988 11.0724C107.199 11.4759 107.304 11.9347 107.304 12.4489C107.304 12.9631 107.199 13.419 106.988 13.8168C106.778 14.2145 106.456 14.527 106.021 14.7543C105.586 14.9787 105.031 15.0909 104.355 15.0909H101.968V14.1364H104.321C104.787 14.1364 105.162 14.0682 105.446 13.9318C105.733 13.7955 105.94 13.6023 106.068 13.3523C106.199 13.0994 106.264 12.7983 106.264 12.4489C106.264 12.0994 106.199 11.794 106.068 11.5327C105.937 11.2713 105.728 11.0696 105.441 10.9276C105.154 10.7827 104.775 10.7102 104.304 10.7102H102.446V18.5H101.389ZM105.497 14.5795L107.645 18.5H106.417L104.304 14.5795H105.497ZM119.462 12.5H118.406C118.343 12.196 118.234 11.929 118.077 11.6989C117.924 11.4688 117.737 11.2756 117.515 11.1193C117.296 10.9602 117.053 10.8409 116.786 10.7614C116.519 10.6818 116.241 10.642 115.951 10.642C115.423 10.642 114.944 10.7756 114.515 11.0426C114.089 11.3097 113.749 11.7031 113.496 12.223C113.246 12.7429 113.121 13.3807 113.121 14.1364C113.121 14.892 113.246 15.5298 113.496 16.0497C113.749 16.5696 114.089 16.9631 114.515 17.2301C114.944 17.4972 115.423 17.6307 115.951 17.6307C116.241 17.6307 116.519 17.5909 116.786 17.5114C117.053 17.4318 117.296 17.3139 117.515 17.1577C117.737 16.9986 117.924 16.804 118.077 16.5739C118.234 16.3409 118.343 16.0739 118.406 15.7727H119.462C119.383 16.2187 119.238 16.6179 119.028 16.9702C118.817 17.3224 118.556 17.6222 118.244 17.8693C117.931 18.1136 117.58 18.2997 117.191 18.4276C116.805 18.5554 116.391 18.6193 115.951 18.6193C115.207 18.6193 114.545 18.4375 113.965 18.0739C113.386 17.7102 112.93 17.1932 112.597 16.5227C112.265 15.8523 112.099 15.0568 112.099 14.1364C112.099 13.2159 112.265 12.4205 112.597 11.75C112.93 11.0795 113.386 10.5625 113.965 10.1989C114.545 9.83523 115.207 9.65341 115.951 9.65341C116.391 9.65341 116.805 9.71733 117.191 9.84517C117.58 9.97301 117.931 10.1605 118.244 10.4077C118.556 10.652 118.817 10.9503 119.028 11.3026C119.238 11.652 119.383 12.0511 119.462 12.5ZM123.693 18.6364C123.102 18.6364 122.583 18.4957 122.137 18.2145C121.694 17.9332 121.348 17.5398 121.098 17.0341C120.85 16.5284 120.727 15.9375 120.727 15.2614C120.727 14.5795 120.85 13.9844 121.098 13.4759C121.348 12.9673 121.694 12.5724 122.137 12.2912C122.583 12.0099 123.102 11.8693 123.693 11.8693C124.284 11.8693 124.801 12.0099 125.244 12.2912C125.69 12.5724 126.037 12.9673 126.284 13.4759C126.534 13.9844 126.659 14.5795 126.659 15.2614C126.659 15.9375 126.534 16.5284 126.284 17.0341C126.037 17.5398 125.69 17.9332 125.244 18.2145C124.801 18.4957 124.284 18.6364 123.693 18.6364ZM123.693 17.733C124.142 17.733 124.511 17.6179 124.801 17.3878C125.091 17.1577 125.305 16.8551 125.444 16.4801C125.583 16.1051 125.653 15.6989 125.653 15.2614C125.653 14.8239 125.583 14.4162 125.444 14.0384C125.305 13.6605 125.091 13.3551 124.801 13.1222C124.511 12.8892 124.142 12.7727 123.693 12.7727C123.244 12.7727 122.875 12.8892 122.585 13.1222C122.295 13.3551 122.081 13.6605 121.941 14.0384C121.802 14.4162 121.733 14.8239 121.733 15.2614C121.733 15.6989 121.802 16.1051 121.941 16.4801C122.081 16.8551 122.295 17.1577 122.585 17.3878C122.875 17.6179 123.244 17.733 123.693 17.733ZM130.665 18.6364C130.12 18.6364 129.638 18.4986 129.221 18.223C128.803 17.9446 128.477 17.5526 128.241 17.0469C128.005 16.5384 127.887 15.9375 127.887 15.2443C127.887 14.5568 128.005 13.9602 128.241 13.4545C128.477 12.9489 128.805 12.5582 129.225 12.2827C129.646 12.0071 130.131 11.8693 130.683 11.8693C131.109 11.8693 131.445 11.9403 131.692 12.0824C131.942 12.2216 132.133 12.3807 132.263 12.5597C132.397 12.7358 132.501 12.8807 132.575 12.9943H132.66V9.77273H133.665V18.5H132.694V17.4943H132.575C132.501 17.6136 132.396 17.7642 132.259 17.946C132.123 18.125 131.928 18.2855 131.675 18.4276C131.423 18.5668 131.086 18.6364 130.665 18.6364ZM130.802 17.733C131.205 17.733 131.546 17.6278 131.825 17.4176C132.103 17.2045 132.315 16.9105 132.46 16.5355C132.604 16.1577 132.677 15.7216 132.677 15.2273C132.677 14.7386 132.606 14.3111 132.464 13.9446C132.322 13.5753 132.112 13.2884 131.833 13.0838C131.555 12.8764 131.211 12.7727 130.802 12.7727C130.376 12.7727 130.021 12.8821 129.737 13.1009C129.455 13.3168 129.244 13.6108 129.102 13.983C128.962 14.3523 128.893 14.767 128.893 15.2273C128.893 15.6932 128.964 16.1165 129.106 16.4972C129.251 16.875 129.464 17.1761 129.745 17.4006C130.029 17.6222 130.381 17.733 130.802 17.733ZM138.391 18.6364C137.761 18.6364 137.217 18.4972 136.759 18.2188C136.305 17.9375 135.954 17.5455 135.707 17.0426C135.462 16.5369 135.34 15.9489 135.34 15.2784C135.34 14.608 135.462 14.017 135.707 13.5057C135.954 12.9915 136.298 12.5909 136.738 12.304C137.181 12.0142 137.698 11.8693 138.289 11.8693C138.63 11.8693 138.967 11.9261 139.299 12.0398C139.631 12.1534 139.934 12.3381 140.207 12.5938C140.479 12.8466 140.697 13.1818 140.859 13.5994C141.021 14.017 141.102 14.5312 141.102 15.142V15.5682H136.056V14.6989H140.079C140.079 14.3295 140.005 14 139.857 13.7102C139.712 13.4205 139.505 13.1918 139.235 13.0241C138.968 12.8565 138.653 12.7727 138.289 12.7727C137.888 12.7727 137.542 12.8722 137.249 13.071C136.96 13.267 136.737 13.5227 136.58 13.8381C136.424 14.1534 136.346 14.4915 136.346 14.8523V15.4318C136.346 15.9261 136.431 16.3452 136.602 16.6889C136.775 17.0298 137.015 17.2898 137.322 17.4688C137.629 17.6449 137.985 17.733 138.391 17.733C138.656 17.733 138.894 17.696 139.107 17.6222C139.323 17.5455 139.509 17.4318 139.665 17.2812C139.822 17.1278 139.942 16.9375 140.028 16.7102L140.999 16.983C140.897 17.3125 140.725 17.6023 140.484 17.8523C140.242 18.0994 139.944 18.2926 139.589 18.4318C139.234 18.5682 138.835 18.6364 138.391 18.6364Z" fill="white"/>
</svg>
