<svg width="60" height="60" viewBox="0 0 60 60" fill="none" xmlns="http://www.w3.org/2000/svg">
<path fill-rule="evenodd" clip-rule="evenodd" d="M0 30C0 15.858 0 8.787 4.392 4.392C8.79 0 15.858 0 30 0C44.142 0 51.213 0 55.605 4.392C60 8.79 60 15.858 60 30C60 44.142 60 51.213 55.605 55.605C51.216 60 44.142 60 30 60C15.858 60 8.787 60 4.392 55.605C0 51.216 0 44.142 0 30ZM24.012 11.256C24.3075 11.2544 24.5997 11.1947 24.8721 11.0801C25.1445 10.9656 25.3917 10.7986 25.5995 10.5885C25.8073 10.3785 25.9717 10.1295 26.0833 9.85595C26.1949 9.58237 26.2516 9.28947 26.25 8.994C26.2484 8.69853 26.1887 8.40625 26.0741 8.13387C25.9596 7.8615 25.7926 7.61434 25.5825 7.40652C25.3725 7.19871 25.1235 7.0343 24.8499 6.92268C24.5764 6.81106 24.2835 6.75442 23.988 6.756C20.742 6.771 18.048 6.846 15.849 7.23C13.593 7.626 11.664 8.376 10.083 9.882C8.718 11.181 7.803 12.498 7.308 14.391C6.858 16.104 6.777 18.216 6.756 20.982C6.75364 21.2775 6.80949 21.5705 6.92038 21.8444C7.03127 22.1183 7.19502 22.3677 7.40228 22.5783C7.60954 22.7889 7.85625 22.9566 8.12833 23.0718C8.40041 23.1871 8.69252 23.2476 8.988 23.25C9.28347 23.2524 9.57652 23.1965 9.85041 23.0856C10.1243 22.9747 10.3737 22.811 10.5843 22.6037C10.7949 22.3965 10.9626 22.1497 11.0778 21.8777C11.1931 21.6056 11.2536 21.3135 11.256 21.018C11.28 18.171 11.376 16.62 11.661 15.534C11.901 14.625 12.279 14.004 13.188 13.14C13.914 12.45 14.904 11.964 16.623 11.664C18.399 11.352 20.733 11.274 24.012 11.256ZM36.012 6.756C35.4153 6.75282 34.8417 6.98682 34.4175 7.40652C33.9933 7.82623 33.7532 8.39726 33.75 8.994C33.7468 9.59074 33.9808 10.1643 34.4005 10.5885C34.8202 11.0127 35.3913 11.2528 35.988 11.256C39.267 11.274 41.601 11.352 43.377 11.664C45.096 11.964 46.086 12.45 46.812 13.14C47.721 14.004 48.102 14.625 48.339 15.534C48.624 16.62 48.723 18.171 48.744 21.018C48.7488 21.6147 48.9904 22.1851 49.4157 22.6037C49.8411 23.0223 50.4153 23.2548 51.012 23.25C51.6087 23.2452 52.1791 23.0036 52.5977 22.5783C53.0163 22.1529 53.2488 21.5787 53.244 20.982C53.223 18.216 53.142 16.104 52.692 14.391C52.194 12.501 51.282 11.181 49.917 9.882C48.336 8.376 46.407 7.626 44.151 7.23C41.952 6.846 39.258 6.771 36.012 6.756ZM9 27.75C8.40326 27.75 7.83097 27.9871 7.40901 28.409C6.98705 28.831 6.75 29.4033 6.75 30C6.75 30.5967 6.98705 31.169 7.40901 31.591C7.83097 32.0129 8.40326 32.25 9 32.25H51C51.5967 32.25 52.169 32.0129 52.591 31.591C53.0129 31.169 53.25 30.5967 53.25 30C53.25 29.4033 53.0129 28.831 52.591 28.409C52.169 27.9871 51.5967 27.75 51 27.75H9ZM11.256 38.982C11.2512 38.3853 11.0096 37.8149 10.5843 37.3963C10.1589 36.9777 9.58474 36.7452 8.988 36.75C8.39126 36.7548 7.82086 36.9964 7.40228 37.4217C6.9837 37.8471 6.75123 38.4213 6.756 39.018C6.777 41.787 6.858 43.896 7.308 45.609C7.806 47.499 8.718 48.819 10.083 50.118C11.664 51.624 13.593 52.374 15.849 52.77C18.048 53.154 20.742 53.229 23.988 53.244C24.2835 53.2456 24.5764 53.1889 24.8499 53.0773C25.1235 52.9657 25.3725 52.8013 25.5825 52.5935C25.7926 52.3857 25.9596 52.1385 26.0741 51.8661C26.1887 51.5937 26.2484 51.3015 26.25 51.006C26.2516 50.7105 26.1949 50.4176 26.0833 50.1441C25.9717 49.8705 25.8073 49.6215 25.5995 49.4115C25.3917 49.2015 25.1445 49.0344 24.8721 48.9199C24.5997 48.8053 24.3075 48.7456 24.012 48.744C20.733 48.729 18.399 48.648 16.623 48.336C14.904 48.036 13.914 47.553 13.188 46.86C12.279 45.996 11.898 45.375 11.661 44.466C11.376 43.383 11.28 41.829 11.256 38.982ZM53.244 39.018C53.2464 38.7225 53.1905 38.4295 53.0796 38.1556C52.9687 37.8817 52.805 37.6323 52.5977 37.4217C52.3905 37.2111 52.1437 37.0434 51.8717 36.9282C51.5996 36.8129 51.3075 36.7524 51.012 36.75C50.7165 36.7476 50.4235 36.8035 50.1496 36.9144C49.8757 37.0253 49.6263 37.189 49.4157 37.3963C49.2051 37.6035 49.0374 37.8503 48.9222 38.1223C48.8069 38.3944 48.7464 38.6865 48.744 38.982C48.72 41.832 48.624 43.383 48.339 44.466C48.099 45.375 47.721 45.996 46.812 46.86C46.086 47.55 45.096 48.036 43.377 48.336C41.601 48.648 39.267 48.726 35.988 48.744C35.3913 48.7472 34.8202 48.9873 34.4005 49.4115C33.9808 49.8357 33.7468 50.4093 33.75 51.006C33.7532 51.6027 33.9933 52.1738 34.4175 52.5935C34.8417 53.0132 35.4153 53.2472 36.012 53.244C39.258 53.229 41.952 53.154 44.151 52.77C46.407 52.374 48.336 51.624 49.917 50.118C51.282 48.819 52.197 47.502 52.692 45.609C53.142 43.896 53.223 41.787 53.244 39.018Z" fill="#315784"/>
</svg>
